<!DOCTYPE svg PUBLIC "-//W3C//DTD SVG 1.1//EN" "http://www.w3.org/Graphics/SVG/1.1/DTD/svg11.dtd">

<!-- Uploaded to: SVG Repo, www.svgrepo.com, Transformed by: SVG Repo Mixer Tools -->
<svg height="219px" width="219px" version="1.1" id="Layer_1" viewBox="-14.93 -14.93 243.19 243.19" xml:space="preserve" fill="#ffffff" stroke="#ffffff" stroke-width="0.00213333">

<g id="SVGRepo_bgCarrier" stroke-width="0"/>

<g id="SVGRepo_tracerCarrier" stroke-linecap="round" stroke-linejoin="round"/>

<g id="SVGRepo_iconCarrier"> <path style="fill:#7ea92d;" d="M203.636,101.818h-38.788c-5.355,0-9.697,4.342-9.697,9.697s4.342,9.697,9.697,9.697h38.788 c5.355,0,9.697-4.342,9.697-9.697S208.992,101.818,203.636,101.818z"/> <path style="fill:#aafb74;" d="M48.485,101.818H9.697c-5.355,0-9.697,4.342-9.697,9.697s4.342,9.697,9.697,9.697h38.788 c5.355,0,9.697-4.342,9.697-9.697S53.84,101.818,48.485,101.818z"/> <path style="fill:#a2c936;" d="M168.378,36.09l-27.428,27.428c-3.787,3.786-3.787,9.926,0,13.713 c1.893,1.894,4.375,2.841,6.856,2.841c2.482,0,4.964-0.946,6.857-2.841l27.428-27.428c3.787-3.786,3.787-9.926,0-13.713 C178.305,32.303,172.165,32.303,168.378,36.09z"/> <g> <path style="fill:#c4fdd2;" d="M106.667,169.697c-5.355,0-9.697,4.342-9.697,9.697v19.394c0,5.355,4.342,9.697,9.697,9.697 c5.355,0,9.697-4.342,9.697-9.697v-19.394C116.364,174.039,112.022,169.697,106.667,169.697z"/> <path style="fill:#c4fdd2;" d="M58.669,145.799l-27.427,27.428c-3.787,3.787-3.787,9.926,0,13.713 c1.893,1.893,4.375,2.84,6.857,2.84c2.482,0,4.964-0.947,6.856-2.84l27.427-27.428c3.787-3.787,3.787-9.926,0-13.713 C68.596,142.012,62.456,142.012,58.669,145.799z"/> </g> <path style="fill:#94eb3d;" d="M106.667,4.848c-5.355,0-9.697,4.342-9.697,9.697v38.788c0,5.355,4.342,9.697,9.697,9.697 c5.355,0,9.697-4.342,9.697-9.697V14.545C116.364,9.19,112.022,4.848,106.667,4.848z"/> <path style="fill:#65fb51;" d="M44.956,36.09c-3.786-3.787-9.926-3.787-13.713,0c-3.787,3.787-3.787,9.926,0,13.713l27.427,27.428 c1.893,1.894,4.375,2.841,6.857,2.841c2.481,0,4.964-0.947,6.856-2.841c3.787-3.786,3.787-9.926,0-13.713L44.956,36.09z"/> </g>

</svg>